<svg width="123" height="37" viewBox="0 0 123 37" fill="none" xmlns="http://www.w3.org/2000/svg">
<path fill-rule="evenodd" clip-rule="evenodd" d="M13.374 24.1369C13.2302 24.1369 13.2168 24.1211 13.1157 24.1099C13.0124 24.0986 12.9068 24.1121 12.8035 24.1031C12.6284 24.0896 12.424 24.0582 12.2331 24.0357C10.4927 23.8266 8.74095 23.0576 7.34634 22.0098C6.81185 21.6073 6.4952 21.2902 6.02584 20.8135C5.44867 20.2289 4.60651 18.9 4.2921 18.1153C3.82049 16.9303 3.60266 16.0242 3.56672 14.729C3.54651 14.0095 3.54651 13.4046 3.65206 12.6783C3.89011 11.0099 4.52791 9.55062 5.51605 8.23298C6.34248 7.1312 7.49456 6.11936 8.72524 5.48303C9.89752 4.87367 10.8856 4.47793 12.2982 4.30704C13.1876 4.19911 13.2639 4.23734 14.1712 4.23734L15.1773 4.37899C15.5321 4.44195 15.8084 4.50941 16.1318 4.6016C17.8116 5.08054 18.6448 5.70563 19.9361 6.69274C20.1584 6.86363 20.3695 7.04576 20.6053 7.20315L21.6316 5.7461C21.6878 5.6719 22.649 4.37 22.6759 4.26882L22.5164 4.17438C22.4805 4.10692 22.2088 3.91355 22.1324 3.85509C21.2364 3.18277 20.5065 2.62514 19.4802 2.11247L19.1186 1.92809C18.9771 1.86963 19.0827 1.88537 18.9794 1.9101L18.8536 1.81117C18.8109 1.78868 18.7615 1.7662 18.7031 1.74146C18.5796 1.6875 18.4898 1.67176 18.3753 1.59081C18.2181 1.58407 18.0362 1.44691 17.8655 1.43117L17.6387 1.33898C17.0211 1.13661 16.3743 0.974714 15.723 0.866784C15.2379 0.785837 14.8898 0.774594 14.5036 0.716133L13.4683 0.666665H13.3088C13.1718 0.67341 13.2662 0.653174 13.2145 0.729624C12.6823 0.525007 10.3781 1.05116 9.8077 1.20856C8.0313 1.70099 6.39414 2.61839 4.95236 3.74491C4.8805 3.80112 4.876 3.80787 4.81312 3.86183C4.75248 3.91805 4.73452 3.92029 4.67164 3.97651L3.65206 4.93213C2.99405 5.58646 1.98346 7.00079 1.57923 7.79902C0.954904 9.03121 0.559642 9.92838 0.260956 11.4214C-0.197179 13.7014 -0.035483 16.5098 0.615788 18.4481C1.15028 20.04 1.95876 21.641 3.0794 22.9002L3.30172 23.1565C3.62511 23.4915 3.93952 23.8356 4.28985 24.1436C6.2504 25.8727 8.70054 27.0667 11.3258 27.4939C11.7885 27.5704 12.6576 27.6783 13.1202 27.6761H22.9611C23.042 27.6131 23.0285 27.802 23.0262 27.2938C22.9948 22.7922 23.0262 18.1827 23.0262 13.6767C22.9117 13.7082 22.8713 13.7824 22.7949 13.8611L20.374 16.285C20.2235 16.4356 20.0955 16.5638 19.9428 16.7145C19.2578 17.4003 19.4577 17.0045 19.4577 18.8753V24.1369H13.374Z" fill="#75DAB4"/>
<path fill-rule="evenodd" clip-rule="evenodd" d="M27.5156 13.6458C27.675 13.6683 28.4745 14.2934 28.6812 14.4575L30.0219 15.7932C30.1342 15.9326 30.2195 16.0428 30.3273 16.1867C30.7203 16.7083 31.0235 17.2547 31.3267 17.8663C31.4771 18.1631 31.5961 18.4892 31.7084 18.8242C31.8252 19.1795 31.915 19.5167 31.9936 19.9102C32.4652 22.2689 32.1464 24.6142 31.0841 26.6581C30.9 27.0089 30.6754 27.3551 30.4531 27.6834C30.3992 27.7599 30.3677 27.8161 30.3093 27.8925C30.2038 28.0342 30.1139 28.1511 30.0039 28.286L29.0382 29.3271C28.3712 29.9454 27.4437 30.5503 26.624 30.9618L25.6965 31.371C25.2406 31.5396 24.6231 31.7218 24.138 31.8207C22.9567 32.0546 21.6452 32.0815 20.4594 31.841C19.0401 31.5554 17.8678 31.0652 16.6866 30.2288C16.2733 29.9342 15.4379 29.2349 15.1594 29.0483L14.6294 29.7633C14.1533 30.4536 13.4931 31.2946 13.0574 31.9511C13.1046 32.0163 13.1899 32.0636 13.2662 32.122L13.9535 32.6482C14.2476 32.8843 14.5576 33.1001 14.8787 33.316C16.8976 34.6629 19.2624 35.4566 21.735 35.5533H22.7501C23.5226 35.524 24.3019 35.4251 25.0812 35.2542C27.0665 34.8158 29.3863 33.7207 30.9494 32.3581C31.0976 32.2277 31.257 32.1153 31.394 31.9736L32.573 30.7617C32.8695 30.4424 33.368 29.7296 33.5926 29.3923C33.7049 29.2259 33.7903 29.0753 33.8958 28.8999C33.9991 28.7245 34.0912 28.5738 34.1833 28.3895C34.473 27.8048 34.7043 27.3664 34.9333 26.748C35.3061 25.7384 35.5801 24.5737 35.6722 23.4697C35.7396 22.6804 35.7328 22.7344 35.7328 21.9362C35.7328 20.4881 35.5554 19.0918 35.1153 17.7719C34.9805 17.3671 34.8525 16.9647 34.6818 16.6116C34.1563 15.5278 33.9362 15.0489 33.2356 14.073L32.8673 13.6458C32.6943 13.2208 31.5198 12.1753 31.138 11.8357C30.7967 11.5322 30.3947 11.2399 30.0129 10.9858C29.1483 10.4102 28.4206 10.0009 27.4392 9.6097C26.1996 9.11502 24.3468 8.61584 22.9635 8.57537C22.8377 8.57087 22.7029 8.57987 22.5772 8.57762C22.4155 8.57087 22.3818 8.54389 22.1976 8.54164L12.7385 8.54389V22.5747C12.9002 22.4668 15.375 19.9485 15.7882 19.537C16.4732 18.8512 16.2733 19.2469 16.2733 17.3761V12.1146C17.8656 12.1146 19.4578 12.1146 21.0501 12.1146C22.2493 12.1146 22.8354 12.0539 24.0526 12.2989C24.6882 12.4271 25.3215 12.598 25.9054 12.8341C26.112 12.9173 26.2737 12.987 26.4646 13.0724C26.7678 13.2074 27.2528 13.4457 27.5156 13.6458Z" fill="#B3CF2D"/>
<path d="M51.737 10.3981H60.8627C60.8627 10.526 60.8671 10.7093 60.8757 10.9437C60.9017 11.5575 60.919 11.9752 60.919 12.1926C60.919 14.8738 60.1355 16.9539 58.5726 18.4415C57.0142 19.9249 54.9015 20.6666 52.2435 20.6666C50.6547 20.6666 49.2391 20.4407 47.9966 19.9761C46.7542 19.5157 45.6676 18.8209 44.7325 17.8917C43.8104 16.9752 43.1134 15.8925 42.6199 14.6521C42.1307 13.4075 41.8883 12.0861 41.8883 10.6666C41.8883 9.22589 42.135 7.90023 42.6329 6.6854C43.1351 5.46631 43.871 4.3964 44.8494 3.46716C45.7931 2.55498 46.897 1.86444 48.1655 1.38277C49.4382 0.909628 50.7932 0.666665 52.2435 0.666665C53.5855 0.666665 54.8626 0.943728 56.0704 1.48934C57.2696 2.03494 58.3432 2.87041 59.2869 3.99999L56.9838 5.70928C56.3345 4.95907 55.5985 4.40493 54.7803 4.04261C53.9621 3.67603 53.131 3.49275 52.2911 3.49275C50.1958 3.49275 48.4815 4.1577 47.1568 5.47909C45.8278 6.80475 45.1654 8.52683 45.1654 10.6411C45.1654 12.7979 45.8278 14.5413 47.1568 15.884C48.4815 17.2225 50.2002 17.8917 52.3171 17.8917C53.9448 17.8917 55.2695 17.4782 56.2999 16.6598C57.3345 15.8329 57.8497 14.7075 57.8497 13.2838V13.0153H53.8539L51.737 10.3981Z" fill="white"/>
<path d="M71.3703 0.666665C73.372 0.666665 75.0358 1.23225 76.3574 2.35472C77.6747 3.48154 78.3334 5.03037 78.3334 7.00557C78.3334 8.38907 77.987 9.5681 77.3026 10.547C76.614 11.5259 75.4378 12.2829 73.774 12.8224L79.2701 20.6666H75.3651L67.5936 10.6601L67.6321 13.3184V20.6666H64.3173V0.666665H71.3703ZM71.0794 3.62946H67.6321V10.3556H71.0794C72.277 10.3556 73.218 10.0728 73.9023 9.49849C74.5952 8.92855 74.9374 8.09758 74.9374 7.00557C74.9374 5.93531 74.591 5.10433 73.8895 4.51264C73.1923 3.9253 72.2599 3.62946 71.0794 3.62946Z" fill="white"/>
<path d="M83.7298 2.95175C85.7983 0.981018 88.3921 0 91.5111 0C94.6301 0 97.2192 0.981018 99.2831 2.95175C101.347 4.91379 102.379 7.37938 102.379 10.3398C102.379 13.3263 101.347 15.7962 99.2831 17.7452C97.2192 19.6943 94.6255 20.6666 91.5064 20.6666C88.3688 20.6666 85.7751 19.6943 83.7159 17.7452C81.6567 15.7962 80.6294 13.3263 80.6294 10.3398C80.6294 7.37938 81.6613 4.91379 83.7298 2.95175ZM91.5064 3.12538C89.3915 3.12538 87.6716 3.80689 86.3329 5.16556C85.0035 6.5199 84.3341 8.24754 84.3341 10.3442C84.3341 12.4451 85.0035 14.1684 86.3329 15.5184C87.6716 16.8684 89.3915 17.5412 91.5064 17.5412C93.6028 17.5412 95.3274 16.8684 96.6707 15.5184C98.0141 14.1684 98.6881 12.4451 98.6881 10.3442C98.6881 8.24754 98.0141 6.5199 96.6707 5.16556C95.3274 3.80689 93.6028 3.12538 91.5064 3.12538Z" fill="white"/>
<path d="M120.619 0.666665L114.548 10.3034L122.089 20.6666H117.806L112.552 13.3445L107.815 20.6666H105.097V0.666665H108.646V13.81L116.445 0.666665H120.619Z" fill="white"/>
<path d="M42.6903 35.3236H43.8113C44.7195 35.3236 45.3664 35.2713 45.7474 35.1709C46.1285 35.0705 46.4519 34.9003 46.7178 34.6603C47.0855 34.3199 47.3602 33.8966 47.5507 33.3904C47.7413 32.8886 47.8343 32.3125 47.8343 31.6623C47.8343 30.999 47.7413 30.4143 47.5507 29.9124C47.3558 29.4062 47.0767 28.9916 46.7045 28.6687C46.4209 28.42 46.0798 28.2454 45.6766 28.1407C45.2734 28.036 44.5645 27.988 43.5543 27.988H42.6903V35.3236ZM41.8883 36V27.3334H43.2574C44.4803 27.3334 45.3487 27.3901 45.8582 27.5123C46.3722 27.6258 46.8152 27.8309 47.183 28.1189C47.6704 28.5029 48.0426 28.996 48.2995 29.5982C48.5565 30.2048 48.685 30.8943 48.685 31.6711C48.685 32.4522 48.5565 33.1417 48.2995 33.7483C48.0426 34.3548 47.6748 34.8392 47.1919 35.2014C46.8153 35.4894 46.381 35.6945 45.8892 35.8167C45.4019 35.9389 44.6132 36 43.5277 36H41.8883Z" fill="white"/>
<path d="M56.8411 36V27.3334H57.5207V36H56.8411Z" fill="white"/>
<path d="M73.3501 29.5998C72.9893 29.08 72.5484 28.6849 72.0274 28.4188C71.5019 28.1485 70.914 28.0154 70.2549 28.0154C69.1594 28.0154 68.2687 28.3647 67.5784 29.0551C66.8881 29.7496 66.5452 30.6437 66.5452 31.7457C66.5452 32.2406 66.6342 32.7022 66.8168 33.1389C67.0039 33.5755 67.2711 33.9664 67.6229 34.3033C67.9747 34.636 68.3711 34.8897 68.812 35.056C69.2484 35.2224 69.7339 35.3055 70.2549 35.3055C71.248 35.3055 72.0541 35.0352 72.6776 34.4904C73.2966 33.9456 73.6173 33.2303 73.6351 32.3487H70.5845V31.7041H74.5124V31.7915C74.5124 33.1097 74.1295 34.1369 73.359 34.8855C72.5885 35.6299 71.5286 36 70.1792 36C68.8387 36 67.7521 35.6008 66.9237 34.8065C66.0909 34.008 65.6767 32.96 65.6767 31.6667C65.6767 31.072 65.7836 30.5106 65.9929 29.9824C66.2022 29.4543 66.5051 28.9968 66.897 28.6059C67.3245 28.1776 67.81 27.8615 68.3488 27.6494C68.8833 27.4415 69.4845 27.3334 70.1436 27.3334C71.0432 27.3334 71.8136 27.4872 72.4549 27.7908C73.0962 28.0902 73.5906 28.5352 73.9335 29.1258L73.3501 29.5998Z" fill="white"/>
<path d="M83.3482 36V27.3334H84.0278V36H83.3482Z" fill="white"/>
<path d="M94.1285 36V28.0709H91.5042V27.3334H97.6212V28.0709H94.9969V36H94.1285Z" fill="white"/>
<path d="M105.281 32.5233H108.308L106.825 28.8996L105.281 32.5233ZM103.059 36L106.878 27.3334L110.535 36H109.673L108.566 33.1783H105.014L103.863 36H103.059Z" fill="white"/>
<path d="M118.011 36V27.3334H118.726V35.2625H121.41V36H118.011Z" fill="white"/>
<path d="M43.2574 27.183C44.4769 27.183 45.3602 27.2395 45.8893 27.3656H45.8903C46.4238 27.4834 46.8881 27.6974 47.275 28.0004L47.276 28.0013C47.7841 28.4017 48.1709 28.9155 48.4371 29.5394H48.4381C48.7042 30.1675 48.8346 30.8779 48.8346 31.6713C48.8346 32.4689 48.7042 33.179 48.4381 33.807C48.1719 34.4354 47.7881 34.942 47.2819 35.3217C46.9373 35.5849 46.5475 35.7807 46.1139 35.9105L45.9254 35.9623C45.4189 36.0892 44.6146 36.1498 43.528 36.1498H41.7379V27.183H43.2574ZM57.6705 27.183V36.1498H56.691V27.183H57.6705ZM70.1432 27.183C71.0591 27.183 71.8526 27.3398 72.5182 27.6547C73.1859 27.9664 73.7041 28.4321 74.0631 29.0502L74.1276 29.1615L74.028 29.2426L73.4449 29.7162L73.319 29.8187L73.2272 29.6849C72.8793 29.1836 72.4565 28.806 71.9596 28.5521H71.9586C71.4569 28.2941 70.8927 28.1654 70.2545 28.1654C69.1942 28.1655 68.3431 28.5026 67.6842 29.1615C67.026 29.8241 66.695 30.678 66.6949 31.7455C66.6949 32.2212 66.7807 32.6627 66.9547 33.0795C67.1339 33.4978 67.3894 33.8722 67.7262 34.1947L67.8551 34.3109C68.16 34.5737 68.4966 34.7765 68.8649 34.9154H68.8658C69.283 35.0744 69.7496 35.1556 70.2545 35.1556C71.2191 35.1556 71.9879 34.8935 72.5787 34.3773C73.1279 33.8939 73.4262 33.27 73.4752 32.4984H70.4342V31.5541H74.6627V31.7914C74.6627 33.0561 74.3172 34.0755 73.61 34.8431L73.4635 34.9935C72.6582 35.7716 71.5568 36.1498 70.1793 36.1498C68.807 36.1498 67.6808 35.7399 66.8199 34.9144C65.9538 34.084 65.527 32.9948 65.527 31.6664C65.527 31.0534 65.6367 30.4732 65.8531 29.9271C66.07 29.3799 66.3842 28.9048 66.7906 28.4994C67.2325 28.0567 67.7356 27.7298 68.2936 27.5101L68.2946 27.5092C68.848 27.2938 69.4679 27.183 70.1432 27.183ZM84.1774 27.183V36.1498H83.1979V27.183H84.1774ZM97.7711 27.183V28.2211H95.1471V36.1498H93.9781V28.2211H91.3541V27.183H97.7711ZM107.016 27.2748L110.673 35.9418L110.761 36.1498H109.571L109.534 36.0551L108.464 33.3285H105.115L104.003 36.057L103.964 36.1498H102.829L102.922 35.9398L106.741 27.2728L106.88 26.9545L107.016 27.2748ZM118.876 27.183V35.1127H121.559V36.1498H117.861V27.183H118.876ZM42.8405 35.1732H43.8112C44.7185 35.1732 45.3488 35.1208 45.7096 35.0258C46.0695 34.9309 46.3706 34.7714 46.6168 34.5492C46.9651 34.2265 47.2277 33.8237 47.4108 33.3373L47.4752 33.1527C47.615 32.715 47.6842 32.2189 47.6842 31.6625C47.6842 31.013 47.5932 30.4471 47.4108 29.9662C47.2234 29.4798 46.9573 29.0864 46.6061 28.7816H46.6051C46.3412 28.5502 46.0222 28.385 45.6393 28.2855C45.257 28.1862 44.5656 28.1381 43.5543 28.1381H42.8405V35.1732ZM105.507 32.3734H108.085L106.822 29.2885L105.507 32.3734Z" stroke="white" stroke-width="0.3"/>
</svg>
