<svg width="315" height="41" viewBox="0 0 315 41" fill="none" xmlns="http://www.w3.org/2000/svg">
<path d="M0.0530001 32V2.416H14.286C16.178 2.416 17.7117 2.64533 18.887 3.104C20.0623 3.534 20.9653 4.179 21.596 5.039C22.2267 5.87033 22.6567 6.90233 22.886 8.135C23.1153 9.36767 23.23 10.7867 23.23 12.392C23.23 13.854 23.1153 15.2013 22.886 16.434C22.6853 17.638 22.2697 18.6843 21.639 19.573C21.037 20.4617 20.134 21.1497 18.93 21.637C17.726 22.1243 16.135 22.368 14.157 22.368H7.535V32H0.0530001ZM7.535 16.692H11.276C12.308 16.692 13.1107 16.6347 13.684 16.52C14.286 16.4053 14.7303 16.2047 15.017 15.918C15.3037 15.6027 15.49 15.1727 15.576 14.628C15.662 14.0547 15.705 13.3093 15.705 12.392C15.705 11.4747 15.662 10.7293 15.576 10.156C15.5187 9.58267 15.3467 9.15267 15.06 8.866C14.7733 8.55067 14.3433 8.35 13.77 8.264C13.1967 8.14933 12.4083 8.092 11.405 8.092H7.535V16.692ZM27.2969 32V10.07H33.8329L34.0049 13.811H34.3919C34.7932 12.7503 35.2949 11.919 35.8969 11.317C36.5275 10.715 37.2872 10.2993 38.1759 10.07C39.0645 9.84067 40.0965 9.726 41.2719 9.726V16.047C39.4659 16.047 38.0469 16.2763 37.0149 16.735C35.9829 17.1937 35.2519 17.982 34.8219 19.1C34.3919 20.1893 34.1769 21.723 34.1769 23.701V32H27.2969ZM42.6116 32L51.9856 2.416H62.1766L71.5936 32H64.0256L62.2626 26.195H51.7276L50.0076 32H42.6116ZM53.3186 20.562H60.6286L57.1026 8.866H56.8016L53.3186 20.562ZM75.0091 32V2.416H82.4911V32H75.0091ZM87.7535 22.54V16.993H99.4925V22.54H87.7535ZM116.566 32.344C114.33 32.344 112.466 32.2007 110.976 31.914C109.485 31.5987 108.267 31.097 107.321 30.409C106.403 29.721 105.701 28.8037 105.214 27.657C104.755 26.5103 104.44 25.077 104.268 23.357C104.096 21.637 104.01 19.5873 104.01 17.208C104.01 14.8287 104.096 12.779 104.268 11.059C104.44 9.339 104.755 7.90567 105.214 6.759C105.701 5.61233 106.403 4.695 107.321 4.007C108.267 3.319 109.485 2.83167 110.976 2.545C112.466 2.22966 114.33 2.072 116.566 2.072C117.426 2.072 118.314 2.10067 119.232 2.158C120.149 2.21533 121.038 2.30133 121.898 2.416C122.758 2.53067 123.489 2.674 124.091 2.846V8.221C123.202 8.135 122.385 8.06333 121.64 8.006C120.923 7.92 120.292 7.877 119.748 7.877C119.203 7.84833 118.744 7.834 118.372 7.834C117.053 7.834 115.964 7.89133 115.104 8.006C114.272 8.092 113.613 8.307 113.126 8.651C112.638 8.995 112.28 9.511 112.051 10.199C111.821 10.8583 111.664 11.7613 111.578 12.908C111.52 14.026 111.492 15.4593 111.492 17.208C111.492 18.928 111.52 20.3613 111.578 21.508C111.664 22.6547 111.821 23.572 112.051 24.26C112.28 24.948 112.638 25.464 113.126 25.808C113.613 26.1233 114.272 26.3383 115.104 26.453C115.964 26.539 117.053 26.582 118.372 26.582C119.26 26.582 120.264 26.5533 121.382 26.496C122.5 26.41 123.46 26.3097 124.263 26.195V31.699C123.632 31.8137 122.872 31.914 121.984 32C121.095 32.1147 120.178 32.2007 119.232 32.258C118.314 32.3153 117.426 32.344 116.566 32.344ZM138.466 32.344C136.517 32.344 134.897 32.2293 133.607 32C132.317 31.7707 131.299 31.398 130.554 30.882C129.809 30.366 129.264 29.678 128.92 28.818C128.576 27.958 128.347 26.883 128.232 25.593C128.146 24.303 128.103 22.7693 128.103 20.992C128.103 19.2147 128.146 17.6953 128.232 16.434C128.347 15.144 128.576 14.069 128.92 13.209C129.264 12.349 129.809 11.661 130.554 11.145C131.299 10.629 132.317 10.2707 133.607 10.07C134.897 9.84067 136.517 9.726 138.466 9.726C140.444 9.726 142.078 9.84067 143.368 10.07C144.658 10.2707 145.676 10.629 146.421 11.145C147.166 11.661 147.711 12.349 148.055 13.209C148.399 14.069 148.614 15.144 148.7 16.434C148.815 17.6953 148.872 19.2147 148.872 20.992C148.872 22.7693 148.815 24.303 148.7 25.593C148.614 26.883 148.399 27.958 148.055 28.818C147.711 29.678 147.166 30.366 146.421 30.882C145.676 31.398 144.658 31.7707 143.368 32C142.078 32.2293 140.444 32.344 138.466 32.344ZM138.466 27.098C139.326 27.098 140 27.0407 140.487 26.926C140.974 26.8113 141.318 26.5533 141.519 26.152C141.72 25.7507 141.834 25.1343 141.863 24.303C141.92 23.4717 141.949 22.368 141.949 20.992C141.949 19.616 141.92 18.5267 141.863 17.724C141.834 16.9213 141.72 16.3193 141.519 15.918C141.318 15.5167 140.974 15.2587 140.487 15.144C140 15.0293 139.326 14.972 138.466 14.972C137.606 14.972 136.932 15.0293 136.445 15.144C135.986 15.2587 135.657 15.5167 135.456 15.918C135.255 16.3193 135.126 16.9213 135.069 17.724C135.04 18.5267 135.026 19.616 135.026 20.992C135.026 22.368 135.04 23.4717 135.069 24.303C135.126 25.1343 135.255 25.7507 135.456 26.152C135.657 26.5533 135.986 26.8113 136.445 26.926C136.932 27.0407 137.606 27.098 138.466 27.098ZM162.255 40.858C161.338 40.858 160.378 40.8293 159.374 40.772C158.4 40.7433 157.482 40.686 156.622 40.6C155.762 40.514 155.046 40.4137 154.472 40.299V35.526C155.074 35.5547 155.719 35.569 156.407 35.569C157.095 35.5977 157.783 35.612 158.471 35.612C159.188 35.612 159.862 35.612 160.492 35.612C161.897 35.612 162.986 35.5547 163.76 35.44C164.563 35.354 165.151 35.139 165.523 34.795C165.925 34.4797 166.168 33.9923 166.254 33.333C166.34 32.7023 166.383 31.8423 166.383 30.753V29.205H166.039C165.609 29.9503 165.079 30.5237 164.448 30.925C163.846 31.2977 163.173 31.5557 162.427 31.699C161.682 31.8423 160.879 31.914 160.019 31.914C158.701 31.914 157.583 31.742 156.665 31.398C155.748 31.0253 154.988 30.4377 154.386 29.635C153.813 28.8037 153.397 27.6713 153.139 26.238C152.881 24.8047 152.752 23.013 152.752 20.863C152.752 18.6843 152.881 16.8783 153.139 15.445C153.426 14.0117 153.856 12.8793 154.429 12.048C155.003 11.2167 155.748 10.629 156.665 10.285C157.583 9.91233 158.686 9.726 159.976 9.726C160.779 9.726 161.567 9.812 162.341 9.984C163.144 10.1273 163.875 10.414 164.534 10.844C165.222 11.274 165.781 11.9047 166.211 12.736H166.555L166.727 10.07H173.306V29.506C173.306 31.4267 173.206 33.1037 173.005 34.537C172.805 35.9703 172.346 37.1457 171.629 38.063C170.941 39.009 169.852 39.7113 168.361 40.17C166.899 40.6287 164.864 40.858 162.255 40.858ZM163.029 26.281C163.861 26.281 164.491 26.195 164.921 26.023C165.38 25.8223 165.71 25.4783 165.91 24.991C166.111 24.5323 166.24 23.9733 166.297 23.314C166.355 22.626 166.383 21.809 166.383 20.863C166.383 19.9457 166.355 19.143 166.297 18.455C166.269 17.767 166.14 17.208 165.91 16.778C165.71 16.2333 165.38 15.875 164.921 15.703C164.491 15.5023 163.861 15.402 163.029 15.402C162.255 15.402 161.639 15.4593 161.18 15.574C160.722 15.66 160.378 15.875 160.148 16.219C159.948 16.563 159.819 17.1077 159.761 17.853C159.704 18.5983 159.675 19.6017 159.675 20.863C159.675 22.1243 159.704 23.1133 159.761 23.83C159.819 24.5467 159.948 25.0913 160.148 25.464C160.378 25.808 160.722 26.0373 161.18 26.152C161.639 26.238 162.255 26.281 163.029 26.281ZM178.637 32V10.07H185.173L185.345 12.736H185.732C186.162 11.9907 186.692 11.403 187.323 10.973C187.953 10.5143 188.67 10.199 189.473 10.027C190.275 9.82633 191.15 9.726 192.096 9.726C193.558 9.726 194.719 9.91233 195.579 10.285C196.467 10.6577 197.141 11.2023 197.6 11.919C198.058 12.6357 198.359 13.5243 198.503 14.585C198.675 15.6457 198.761 16.8783 198.761 18.283V32H191.838V20.39C191.838 19.2147 191.809 18.2973 191.752 17.638C191.694 16.95 191.565 16.4483 191.365 16.133C191.164 15.8177 190.849 15.6313 190.419 15.574C190.017 15.488 189.473 15.445 188.785 15.445C188.068 15.445 187.48 15.531 187.022 15.703C186.592 15.8463 186.262 16.1043 186.033 16.477C185.832 16.8497 185.689 17.38 185.603 18.068C185.545 18.7273 185.517 19.5587 185.517 20.562V32H178.637ZM203.956 5.598V0.0509987H211.051V5.598H203.956ZM204.042 32V10.07H211.008V32H204.042ZM216.346 40.557V10.07H222.882L223.054 12.736H223.441C223.899 11.9047 224.444 11.274 225.075 10.844C225.734 10.414 226.465 10.1273 227.268 9.984C228.07 9.812 228.873 9.726 229.676 9.726C230.966 9.726 232.055 9.898 232.944 10.242C233.861 10.586 234.606 11.188 235.18 12.048C235.782 12.8793 236.212 14.026 236.47 15.488C236.756 16.95 236.9 18.7847 236.9 20.992C236.9 23.1707 236.756 24.991 236.47 26.453C236.212 27.915 235.796 29.076 235.223 29.936C234.649 30.796 233.904 31.4123 232.987 31.785C232.098 32.1577 231.009 32.344 229.719 32.344C228.887 32.344 228.085 32.2723 227.311 32.129C226.537 31.9857 225.834 31.7277 225.204 31.355C224.602 30.9537 224.071 30.3947 223.613 29.678H223.226V40.557H216.346ZM226.58 26.668C227.354 26.668 227.97 26.6107 228.429 26.496C228.887 26.3813 229.217 26.152 229.418 25.808C229.647 25.4353 229.79 24.8763 229.848 24.131C229.934 23.3857 229.977 22.3537 229.977 21.035C229.977 19.7163 229.934 18.6843 229.848 17.939C229.79 17.165 229.647 16.606 229.418 16.262C229.217 15.8893 228.887 15.66 228.429 15.574C227.97 15.4593 227.354 15.402 226.58 15.402C225.748 15.402 225.103 15.5167 224.645 15.746C224.215 15.9467 223.885 16.305 223.656 16.821C223.484 17.2797 223.369 17.8673 223.312 18.584C223.254 19.272 223.226 20.089 223.226 21.035C223.226 22.0097 223.254 22.841 223.312 23.529C223.369 24.217 223.469 24.7617 223.613 25.163C223.842 25.7363 224.186 26.1377 224.645 26.367C225.103 26.5677 225.748 26.668 226.58 26.668ZM241.499 32V0.0509987H248.465V32H241.499ZM259.135 32.344C257.759 32.344 256.598 32.129 255.652 31.699C254.706 31.269 253.989 30.5667 253.502 29.592C253.043 28.6173 252.814 27.3417 252.814 25.765C252.814 24.1023 253 22.7837 253.373 21.809C253.774 20.8057 254.476 20.089 255.48 19.659C256.483 19.229 257.902 19.014 259.737 19.014C259.995 19.014 260.353 19.0283 260.812 19.057C261.299 19.057 261.844 19.0713 262.446 19.1C263.048 19.1 263.65 19.1143 264.252 19.143C264.854 19.143 265.398 19.1573 265.886 19.186V18.369C265.886 17.5377 265.814 16.8927 265.671 16.434C265.556 15.9753 265.312 15.6457 264.94 15.445C264.596 15.2157 264.065 15.0867 263.349 15.058C262.632 15.0007 261.686 14.972 260.511 14.972C259.851 14.972 259.12 14.9863 258.318 15.015C257.544 15.0437 256.77 15.0867 255.996 15.144C255.25 15.1727 254.62 15.2157 254.104 15.273V10.414C255.279 10.2133 256.598 10.0557 258.06 9.941C259.55 9.79767 261.113 9.726 262.747 9.726C264.581 9.726 266.101 9.84067 267.305 10.07C268.537 10.2993 269.526 10.6577 270.272 11.145C271.017 11.6037 271.562 12.1913 271.906 12.908C272.278 13.6247 272.522 14.4703 272.637 15.445C272.751 16.4197 272.809 17.5233 272.809 18.756V32H266.187L266.015 29.42H265.671C265.126 30.28 264.495 30.925 263.779 31.355C263.062 31.785 262.302 32.0573 261.5 32.172C260.697 32.2867 259.909 32.344 259.135 32.344ZM262.403 27.442C262.919 27.442 263.363 27.4133 263.736 27.356C264.137 27.27 264.467 27.141 264.725 26.969C265.011 26.7683 265.241 26.5247 265.413 26.238C265.556 25.9227 265.671 25.5357 265.757 25.077C265.843 24.6183 265.886 24.0737 265.886 23.443V22.626H261.887C261.17 22.626 260.625 22.6833 260.253 22.798C259.88 22.884 259.622 23.1133 259.479 23.486C259.364 23.83 259.307 24.3747 259.307 25.12C259.307 25.7507 259.378 26.238 259.522 26.582C259.665 26.926 259.952 27.1553 260.382 27.27C260.84 27.3847 261.514 27.442 262.403 27.442ZM280.141 32V15.316H276.142V10.07H280.141V3.706H287.107V10.07H291.88V15.316H287.107V32H280.141ZM305.483 32.344C303.419 32.344 301.713 32.215 300.366 31.957C299.019 31.699 297.944 31.2977 297.141 30.753C296.367 30.1797 295.779 29.4487 295.378 28.56C295.005 27.6713 294.762 26.6107 294.647 25.378C294.561 24.1453 294.518 22.712 294.518 21.078C294.518 19.1 294.604 17.3943 294.776 15.961C294.977 14.5277 295.407 13.3523 296.066 12.435C296.725 11.5177 297.743 10.844 299.119 10.414C300.524 9.95533 302.416 9.726 304.795 9.726C306.716 9.726 308.278 9.86933 309.482 10.156C310.686 10.414 311.632 10.8297 312.32 11.403C313.037 11.9477 313.538 12.6643 313.825 13.553C314.14 14.4417 314.341 15.5167 314.427 16.778C314.513 18.0107 314.556 19.444 314.556 21.078V22.755H301.355C301.355 23.7297 301.398 24.518 301.484 25.12C301.57 25.6933 301.799 26.1233 302.172 26.41C302.545 26.6967 303.118 26.8973 303.892 27.012C304.666 27.098 305.741 27.141 307.117 27.141C307.662 27.141 308.307 27.1267 309.052 27.098C309.797 27.0693 310.571 27.0263 311.374 26.969C312.205 26.9117 312.979 26.8543 313.696 26.797V31.613C313.065 31.7563 312.291 31.8853 311.374 32C310.485 32.1147 309.525 32.2007 308.493 32.258C307.461 32.3153 306.458 32.344 305.483 32.344ZM308.063 19.874V19.186C308.063 18.154 308.006 17.337 307.891 16.735C307.805 16.133 307.633 15.6887 307.375 15.402C307.146 15.0867 306.816 14.886 306.386 14.8C305.956 14.714 305.411 14.671 304.752 14.671C304.007 14.671 303.405 14.7283 302.946 14.843C302.516 14.929 302.186 15.1297 301.957 15.445C301.728 15.7603 301.57 16.219 301.484 16.821C301.398 17.423 301.355 18.2113 301.355 19.186H308.794L308.063 19.874Z" fill="url(#paint0_linear_1_452)"/>
<defs>
<linearGradient id="paint0_linear_1_452" x1="55" y1="-61" x2="298.446" y2="49.0123" gradientUnits="userSpaceOnUse">
<stop stop-color="#B3CF2D"/>
<stop offset="0.5" stop-color="#3999C8"/>
<stop offset="1" stop-color="#5BC7B3"/>
</linearGradient>
</defs>
</svg>
