<svg width="28" height="29" viewBox="0 0 28 29" fill="none" xmlns="http://www.w3.org/2000/svg">
<path d="M12.8461 1.99998C16.1746 1.99998 18.8726 4.69796 18.8726 8.0264C18.8726 8.69186 18.3325 9.23078 17.667 9.23078C17.0016 9.23078 16.4615 8.69186 16.4615 8.0264C16.4615 6.02891 14.8436 4.41101 12.8461 4.41101H8.02641C6.02892 4.41101 4.41103 6.02891 4.41103 8.0264V20.0769C4.41103 22.0744 6.02892 23.6923 8.02641 23.6923H12.8461C14.8436 23.6923 16.4615 22.0744 16.4615 20.0769C16.4615 19.4114 17.0016 18.8725 17.667 18.8725C18.3325 18.8725 18.8726 19.4114 18.8726 20.0769C18.8726 23.4054 16.1746 26.1033 12.8461 26.1033H8.02641C4.69794 26.1033 2 23.4053 2 20.0769V8.0264C2 4.69793 4.69797 1.99998 8.02641 1.99998H12.8461Z" fill="#7B9999"/>
<path d="M11.644 12.8461C10.9786 12.8461 10.4385 13.3862 10.4385 14.0516C10.4385 14.7171 10.9786 15.2571 11.644 15.2571V12.8461Z" fill="#7B9999"/>
<path d="M21.6241 12.8461C21.5168 12.7139 21.414 12.5862 21.3168 12.4631C21.0208 12.0903 20.77 11.7626 20.5937 11.5276C20.5045 11.4101 20.4344 11.3152 20.3858 11.2497L20.3305 11.1729L20.3146 11.1525L20.3101 11.1457C20.3101 11.1457 20.309 11.1446 21.284 10.4362L20.3101 11.1457C19.9181 10.6068 20.0367 9.8521 20.5756 9.46121C21.1146 9.07028 21.8681 9.18892 22.259 9.72784L22.2624 9.73236L22.2749 9.74931L22.3246 9.81823C22.3698 9.87811 22.4353 9.96623 22.5189 10.0781C22.6861 10.3007 22.9245 10.6114 23.2058 10.9661C23.773 11.6824 24.4927 12.5433 25.1491 13.1998L26.001 14.0516L25.1491 14.9035C24.4927 15.5599 23.773 16.4208 23.2058 17.1371C22.9245 17.4919 22.6861 17.8037 22.5189 18.0252C22.4353 18.137 22.3698 18.2251 22.3246 18.285L22.2749 18.3539L22.2624 18.3709L22.259 18.3743C21.8681 18.9132 21.1146 19.0329 20.5756 18.642C20.0367 18.2511 19.9181 17.4975 20.309 16.9586L20.3146 16.9507L20.3305 16.9304L20.3858 16.8536C20.4344 16.788 20.5045 16.6931 20.5937 16.5756C20.77 16.3406 21.0208 16.013 21.3168 15.6401C21.4139 15.517 21.5168 15.3893 21.6241 15.2571H11.6433V12.8461L21.6241 12.8461Z" fill="#7B9999"/>
</svg>
