<svg width="198" height="124" viewBox="0 0 198 124" fill="none" xmlns="http://www.w3.org/2000/svg">
<path d="M174.712 20.9894V102.324C174.712 113.908 165.307 123.313 153.723 123.313H72.3886C60.8045 123.313 51.3992 113.908 51.3992 102.324V20.9894C51.3992 9.40537 60.8045 0 72.3886 0H153.723C165.307 0 174.712 9.40537 174.712 20.9894Z" fill="#DDFFFF"/>
<path d="M109.247 82.7633L115.047 76.9636M115.047 76.9636L120.846 82.7633M115.047 76.9636V90.8826" stroke="#233232" stroke-width="2.00664" stroke-linecap="round" stroke-linejoin="round"/>
<path d="M105.688 46.4691C103.443 47.0117 101.394 48.1488 99.7488 49.7707C98.1096 51.3927 96.9378 53.4245 96.3606 55.6583C95.7892 57.8921 95.8296 60.2413 96.4876 62.452C97.1456 64.6627 98.3924 66.6541 100.095 68.2126C101.798 69.7653 103.893 70.8331 106.15 71.2949L123.957 71.5431H125.862C127.161 71.5488 128.442 71.2429 129.596 70.6599C130.757 70.077 131.761 69.2285 132.529 68.1837C133.302 67.139 133.81 65.9326 134.029 64.6512C134.243 63.3756 134.156 62.0653 133.77 60.8243C133.383 59.5833 132.713 58.4577 131.807 57.5226C130.907 56.5933 129.798 55.8891 128.575 55.4678C127.345 55.0406 126.035 54.9137 124.754 55.0868C123.466 55.2658 122.243 55.7448 121.175 56.4779C120.748 54.2095 119.715 52.1026 118.185 50.3826C116.65 48.6567 114.681 47.3811 112.476 46.6942C110.277 46.0015 107.928 45.9265 105.688 46.4691Z" fill="white"/>
<path d="M105.689 46.4673C103.445 47.0111 101.394 48.1516 99.7519 49.7707C98.1086 51.3915 96.9386 53.4256 96.3637 55.66C95.7888 57.8944 95.8309 60.2413 96.4895 62.4532C97.1481 64.6656 98.3949 66.6541 100.097 68.212C101.797 69.7676 103.892 70.8319 106.153 71.292L123.957 71.5442H125.864C127.161 71.5465 128.44 71.2446 129.598 70.6605C130.755 70.0769 131.761 69.229 132.529 68.1849C133.301 67.1413 133.812 65.9326 134.028 64.6541C134.243 63.3732 134.155 62.0635 133.769 60.8231C133.384 59.5856 132.714 58.456 131.81 57.5244C130.908 56.5933 129.799 55.888 128.573 55.466C127.346 55.0424 126.037 54.9136 124.753 55.0897C123.469 55.2675 122.243 55.7437 121.177 56.4808C120.75 54.2123 119.715 52.1044 118.185 50.3814C116.651 48.6567 114.681 47.3805 112.478 46.693C110.277 46.0027 107.93 45.9265 105.689 46.4673Z" stroke="#233232" stroke-width="2.2" stroke-linecap="round" stroke-linejoin="round"/>
<path d="M24.6469 9.55548L75.4267 24.1164C78.4905 24.9949 80.263 28.1911 79.3842 31.2559L64.1169 84.4993C63.2384 87.563 60.0412 89.3353 56.9774 88.4567L6.19758 73.8959C3.13279 73.017 1.36156 69.8201 2.24009 66.7564L17.5074 13.513C18.3862 10.4482 21.5821 8.67667 24.6469 9.55548Z" fill="#E0FFFF"/>
<path d="M66.7735 72.4508L63.2769 86.3654L60.0173 88.5868L3.16124 72.6721L1.9422 67.5879L5.63531 54.9197L66.7735 72.4508Z" fill="#9FF3F3"/>
<path d="M57.7971 43.5484C53.4262 38.1933 31.0593 63.109 31.0593 63.109L67.3271 72.7706L68.641 68.3141C68.641 68.3141 63.2919 50.2804 57.7971 43.5484Z" fill="#20CCCD"/>
<path d="M66.9876 72.2987L55.3862 68.9721L56.7803 43.1694L59.3023 43.8926L68.5786 66.7502L66.9876 72.2987Z" fill="black" fill-opacity="0.2"/>
<path d="M37.4506 48.682C33.0797 43.3269 17.665 58.7966 17.665 58.7966L46.5895 67.0196C46.5895 67.0196 42.9453 55.414 37.4506 48.682Z" fill="#20CCCD"/>
<path d="M42.9699 66.0013L30.5256 62.3893L34.9778 47.7305L37.2305 48.525L47.3157 66.6579L42.9699 66.0013Z" fill="black" fill-opacity="0.2"/>
<path d="M18.2052 58.8281L31.8007 48.5336C32.3793 48.0958 33.0392 47.8429 33.7109 47.7658C34.2256 47.707 34.747 47.7506 35.2433 47.893C36.0282 48.118 36.7453 48.5868 37.2767 49.2883L37.276 49.287C37.3908 49.4389 37.491 49.5921 37.5767 49.7499L37.5796 49.7551L39.6605 53.5092C39.7339 53.6416 39.8626 53.7374 40.0107 53.769C40.1589 53.8006 40.3152 53.7657 40.4365 53.6738L53.3961 43.8608C54.4182 43.0872 55.6912 42.8932 56.8354 43.2203C57.6213 43.4456 58.3389 43.9167 58.8713 44.6185C59.0958 44.9132 59.2767 45.238 59.407 45.5833L59.4077 45.5846L64.0927 57.874C64.1962 58.145 64.499 58.2809 64.77 58.1774C65.0409 58.0739 65.1769 57.7711 65.0733 57.5001L60.3873 45.2104L60.388 45.2117C60.2215 44.772 59.993 44.3582 59.7073 43.9837C59.0348 43.0965 58.1194 42.4967 57.1247 42.2114C55.6784 41.7956 54.0556 42.0443 52.7626 43.0241L40.2854 52.4721L38.4974 49.2464L38.0391 49.5004L38.5005 49.2506C38.3858 49.0375 38.2535 48.8402 38.1145 48.6551C37.443 47.7682 36.5263 47.1691 35.5326 46.8841C34.0852 46.468 32.4602 46.7172 31.1672 47.6969L17.5717 57.9914C17.3403 58.1664 17.2951 58.4951 17.4701 58.7265C17.645 58.9579 17.9738 59.0031 18.2052 58.8281Z" fill="#263535"/>
<path d="M6.0645 56.0379L66.5736 73.4487C66.852 73.5285 67.1428 73.3674 67.2227 73.0889C67.3025 72.8105 67.1413 72.5197 66.8629 72.4399L17.6836 58.2899L6.35377 55.0291C6.07534 54.9493 5.78457 55.1105 5.70473 55.3889C5.62489 55.6673 5.78607 55.9581 6.0645 56.0379Z" fill="#263535"/>
<path d="M31.4711 23.1036C34.4148 23.9477 36.1144 27.0138 35.2703 29.9575C34.4262 32.9012 31.3601 34.6008 28.4164 33.7567C25.4736 32.9129 23.7731 29.8465 24.6172 26.9028C25.4613 23.959 28.5284 22.2598 31.4711 23.1036Z" fill="#4CF9F9"/>
<path d="M31.471 23.1036L31.3264 23.608C32.66 23.9904 33.7094 24.8732 34.3325 25.9974C34.9556 27.1215 35.1482 28.4792 34.7658 29.8129C34.3834 31.1465 33.5006 32.1959 32.3764 32.819C31.2523 33.4421 29.8946 33.6347 28.5609 33.2523C27.2272 32.8699 26.1779 31.9871 25.5548 30.8629C24.9317 29.7388 24.7391 28.3811 25.1215 27.0474C25.5039 25.7138 26.3867 24.6644 27.5109 24.0413C28.635 23.4182 29.9927 23.2256 31.3264 23.608L31.471 23.1036L31.6156 22.5992C28.3935 21.6752 25.0366 23.536 24.1127 26.7582C23.1887 29.9803 25.0495 33.3372 28.2716 34.2611C31.4938 35.1851 34.8507 33.3243 35.7746 30.1022C36.6985 26.88 34.8378 23.5231 31.6156 22.5992L31.471 23.1036Z" fill="#263535"/>
<path d="M24.6468 9.55549L24.5022 10.0599L75.282 24.6208C76.6762 25.0206 77.7728 25.9442 78.4257 27.1206C79.0776 28.2966 79.2796 29.454 78.8798 30.8482L63.6122 84.0925C63.2125 85.4867 62.2887 86.8464 61.1126 87.4983C59.9356 88.1499 58.5162 88.3521 57.122 87.9523L6.34213 73.3914C4.94794 72.9917 3.85035 72.0677 3.19844 70.8917C2.54654 69.7156 2.34463 68.2952 2.74441 66.901L18.0117 13.6576C18.4115 12.2634 19.3354 11.1658 20.5115 10.5139C21.6876 9.86203 23.108 9.66012 24.5022 10.0599L24.6468 9.55549L24.7914 9.05108C21.4482 8.09243 17.9615 10.0251 17.0029 13.3683L1.73559 66.6117C0.776938 69.9549 2.70963 73.4416 6.05285 74.4003L56.8327 88.9611C60.1759 89.9198 63.6623 87.9881 64.621 84.6449L79.8885 31.4005C80.8472 28.0573 78.9145 24.5706 75.5713 23.612L24.7914 9.05108L24.6468 9.55549Z" fill="#364E4E"/>
<path d="M187.139 13.5706C187.608 13.8209 187.96 14.2463 188.116 14.7548L196.481 42.1144C196.713 42.8779 196.634 43.7036 196.259 44.4079C195.884 45.1132 195.245 45.6403 194.482 45.8734L171.448 52.9157C171.07 53.0312 170.672 53.0704 170.279 53.0334C169.885 52.9954 169.503 52.8802 169.154 52.6948C168.805 52.5103 168.496 52.2572 168.244 51.9521C167.992 51.6471 167.803 51.2963 167.687 50.9176L157.906 18.9267C157.791 18.548 157.751 18.1502 157.788 17.7569C157.826 17.3633 157.942 16.9803 158.127 16.6315C158.312 16.2827 158.566 15.9719 158.871 15.7203C159.176 15.4686 159.527 15.28 159.906 15.1652L178.306 9.53999C178.558 9.4628 178.824 9.43514 179.085 9.46111C179.348 9.48679 179.603 9.56278 179.836 9.68642L187.139 13.5706Z" fill="#F4FFFF"/>
<path d="M177.652 9.73983L179.412 15.4975C179.608 16.1364 180.048 16.6715 180.639 16.9854C181.229 17.2983 181.918 17.3657 182.557 17.1704L188.316 15.4098C188.586 15.3272 188.738 15.041 188.655 14.7709C188.573 14.5008 188.287 14.3487 188.016 14.4312L182.258 16.1918C181.88 16.3073 181.47 16.2679 181.119 16.0821C180.769 15.8959 180.507 15.578 180.391 15.1983L178.631 9.44066C178.548 9.17059 178.262 9.01841 177.992 9.10098C177.722 9.18355 177.569 9.46975 177.652 9.73983Z" fill="#364E4E"/>
<path d="M166.214 25.028C165.674 25.1931 165.369 25.7646 165.535 26.3057C165.701 26.8465 166.271 27.1495 166.812 26.985L183.447 21.8992C183.987 21.7331 184.291 21.163 184.127 20.6216C183.96 20.0797 183.389 19.778 182.849 19.9422L166.214 25.028Z" fill="#364E4E"/>
<path d="M168.009 30.8992L184.644 25.8133C185.184 25.6482 185.757 25.9526 185.922 26.4927C186.087 27.0329 185.782 27.6053 185.242 27.7704L168.607 32.8562C168.067 33.0213 167.495 32.717 167.33 32.1768C167.165 31.6367 167.469 31.0643 168.009 30.8992Z" fill="#364E4E"/>
<path d="M169.805 36.7742L178.612 34.0817C179.152 33.9166 179.724 34.22 179.89 34.7611C180.055 35.3022 179.75 35.8736 179.21 36.0388L170.404 38.7313C169.863 38.8964 169.291 38.593 169.126 38.0519C168.96 37.5108 169.265 36.9394 169.805 36.7742Z" fill="#364E4E"/>
<path d="M190.635 24.5211L182.028 17.272C182.207 17.2571 182.384 17.2233 182.557 17.1703L188.09 15.4786L190.635 24.5211Z" fill="#CDD4D4"/>
<path d="M187.139 13.5706L186.899 14.0216C187.248 14.2081 187.51 14.526 187.627 14.9054L187.627 14.9044L195.992 42.264C196.185 42.8984 196.118 43.5822 195.807 44.1661C195.496 44.7513 194.965 45.1908 194.333 45.3841L171.298 52.4265C170.985 52.5222 170.654 52.555 170.328 52.5242C170.002 52.4933 169.685 52.3977 169.394 52.2435L169.393 52.2428C169.103 52.0895 168.848 51.8809 168.639 51.627L168.639 51.626C168.43 51.3732 168.273 51.0831 168.176 50.7681L158.395 18.7762C158.299 18.462 158.266 18.132 158.297 17.8046C158.329 17.4772 158.425 17.1611 158.579 16.8711C158.733 16.581 158.943 16.3244 159.196 16.1152C159.449 15.9076 159.74 15.7501 160.053 15.6544L160.056 15.6535L178.455 10.0283C178.644 9.97054 178.842 9.95058 179.035 9.96966C179.231 9.98882 179.422 10.046 179.595 10.1377L186.899 14.0216L187.139 13.5706L187.38 13.1183L180.075 9.23442L180.076 9.2351C179.784 9.07953 179.463 8.98281 179.133 8.95092L179.135 8.9516C178.805 8.91971 178.472 8.95312 178.156 9.04975L159.757 14.675L159.757 14.6747L159.754 14.6758C159.312 14.8108 158.901 15.0319 158.545 15.3256C158.188 15.62 157.893 15.9819 157.676 16.3908C157.458 16.7996 157.323 17.2465 157.279 17.7072C157.236 18.1677 157.282 18.633 157.417 19.0753L167.198 51.0672C167.334 51.5092 167.555 51.9219 167.849 52.2782C168.144 52.6355 168.506 52.9304 168.914 53.1468C169.323 53.3642 169.77 53.4984 170.231 53.5423L170.23 53.5426C170.69 53.5862 171.155 53.5402 171.597 53.405L194.632 46.3626C195.524 46.0898 196.273 45.4715 196.711 44.6474C197.15 43.823 197.242 42.8585 196.971 41.9658L188.606 14.6053C188.41 13.9676 187.969 13.4335 187.38 13.1193L187.38 13.1183L187.139 13.5706Z" fill="#364E4E"/>
</svg>
